<?xml version="1.0" encoding="UTF-8"?>
<svg id="App_Icon_Kit_A" data-name="App Icon Kit A" xmlns="http://www.w3.org/2000/svg" viewBox="0 0 1024 1024">
  <defs>
    <style>
      .cls-1 {
        fill: #9366f4;
      }

      .cls-2 {
        fill: #804af6;
      }

      .cls-3 {
        fill: #af8aff;
      }
    </style>
  </defs>
  <g id="_レイヤー_7" data-name="レイヤー 7">
    <g id="_3" data-name="3">
      <rect class="cls-1" x="208.5" y="774.5" width="559" height="76" rx="38" ry="38"/>
      <path class="cls-2" d="M767.49,812.38c0,20.98-17.12,38.15-38.05,38.15h-170.22l-170.22-76.3h340.44c10.46,0,19.98,4.3,26.88,11.2,6.89,6.92,11.17,16.46,11.17,26.95Z"/>
      <path class="cls-1" d="M501.5,671.19v82.79l-267.86-117.27c-18.62-8.15-27.19-30.06-19.03-48.68l.77-1.76c8.15-18.62,30.06-27.19,48.68-19.04l237.44,103.96Z"/>
      <path class="cls-3" d="M764.44,826.65l-.78,1.77c-8.15,18.62-30.06,27.18-48.68,19.03l-213.48-93.47v-82.79l243.9,106.78c18.62,8.15,27.19,30.06,19.04,48.68Z"/>
    </g>
    <g id="_2" data-name="2">
      <path class="cls-2" d="M767.49,596.38c0,20.98-17.12,38.15-38.05,38.15h-170.22l-170.22-76.3h340.44c10.46,0,19.98,4.3,26.88,11.2,6.89,6.92,11.17,16.46,11.17,26.95Z"/>
      <path class="cls-1" d="M501.5,455.19v82.79l-267.86-117.27c-18.62-8.15-27.19-30.06-19.03-48.68l.77-1.76c8.15-18.62,30.06-27.19,48.68-19.04l237.44,103.96Z"/>
      <path class="cls-3" d="M764.44,610.65l-.78,1.77c-8.15,18.62-30.06,27.18-48.68,19.03l-213.48-93.47v-82.79l243.9,106.78c18.62,8.15,27.19,30.06,19.04,48.68Z"/>
    </g>
    <g id="_1" data-name="1">
      <path class="cls-2" d="M767.49,380.38c0,20.98-17.12,38.15-38.05,38.15h-170.22l-170.22-76.3h340.44c10.46,0,19.98,4.3,26.88,11.2,6.89,6.92,11.17,16.46,11.17,26.95Z"/>
      <path class="cls-1" d="M501.5,239.19v82.79l-267.86-117.27c-18.62-8.15-27.19-30.06-19.03-48.68l.77-1.76c8.15-18.62,30.06-27.19,48.68-19.04l237.44,103.96Z"/>
      <path class="cls-3" d="M764.44,394.65l-.78,1.77c-8.15,18.62-30.06,27.18-48.68,19.03l-213.48-93.47v-82.79l243.9,106.78c18.62,8.15,27.19,30.06,19.04,48.68Z"/>
    </g>
    <g id="top">
      <path class="cls-3" d="M766.79,170c0,20.9-17.09,38-37.98,38h-13.74l-171.37-76h185.11c10.45,0,19.94,4.28,26.83,11.16,6.88,6.89,11.15,16.39,11.15,26.84Z"/>
      <polygon class="cls-2" points="715.07 208 558.91 208 389 132 543.7 132 715.07 208"/>
    </g>
  </g>
</svg>